<?xml version="1.0" encoding="utf-8"?>
<!-- Generator: Adobe Illustrator 21.0.2, SVG Export Plug-In . SVG Version: 6.00 Build 0)  -->
<svg version="1.1" id="Capa_1" xmlns="http://www.w3.org/2000/svg" xmlns:xlink="http://www.w3.org/1999/xlink" x="0px" y="0px"
	 width="147.7px" height="28px" viewBox="0 0 147.7 28" style="enable-background:new 0 0 147.7 28;" xml:space="preserve">
<style type="text/css">
	.st0{fill:#FFFFFF;}
</style>
<g>
	<path class="st0" d="M90,27.4L83,0.5C83,0,82.3,0,82.3,0h-4.8c0,0-0.7,0-0.8,0.5l-7,26.9c-0.1,0.5,0.4,0.5,0.4,0.5h6.1
		c0,0,0.5,0,0.6-0.5l0.8-3.4h4.7l0.8,3.4c0.1,0.5,0.6,0.5,0.6,0.5h6.1C89.6,27.9,90.1,27.9,90,27.4z M78.4,19.6l1.4-10.2
		c0,0,0,0,0,0l1.5,10.2H78.4z"/>
	<path class="st0" d="M17.9,0h-5.6c-0.4,0-0.7,0.2-0.7,0.6l0,21.7c0,0.7-0.7,1.3-1.5,1.3c0,0,0,0,0,0H8.5c0,0,0,0,0,0
		c-0.9,0-1.5-0.6-1.5-1.3l0-2.6c0-0.4-0.3-0.6-0.8-0.6H0.8c-0.5,0-0.8,0.2-0.8,0.6v3c0,0,0,0,0,0C0,25.7,2.8,28,6.1,28h6.4
		c3.3,0,6.1-2.3,6.1-5.2V0.6C18.6,0.3,18.3,0,17.9,0z"/>
	<path class="st0" d="M40.3,0h-6.6c-3.3,0-6.1,2.3-6.1,5.2l0,17.6c0,2.9,2.8,5.2,6.1,5.2h6.6c3.3,0,6.1-2.3,6.1-5.2l0-17.6
		C46.5,2.3,43.7,0,40.3,0z M39.4,22.4c0,0.7-0.6,1.3-1.5,1.3h-1.7c-0.9,0-1.6-0.6-1.6-1.3l0-16.6c0-0.7,0.7-1.3,1.6-1.3h1.7
		c0.9,0,1.5,0.5,1.5,1.3L39.4,22.4z"/>
	<path class="st0" d="M61.9,0h-5.6c-0.5,0-0.8,0.2-0.8,0.6v26.7c0,0.4,0.3,0.6,0.8,0.6h5.6c0.4,0,0.7-0.2,0.7-0.6V0.7
		C62.6,0.3,62.3,0,61.9,0z"/>
	<g>
		<path class="st0" d="M92.9,9.8V1.1h1.6L96,5.2l1.4-4.1h1.7v8.7h-1.4V3.5l-1.2,3.3h-1l-1.2-3.3v6.3H92.9z"/>
		<path class="st0" d="M100.5,9.8V8.5h1.7V2.4h-1.6V1.1h4.8v1.3h-1.7v6.1h1.8v1.3H100.5z"/>
		<path class="st0" d="M106.7,9.8l2.3-4.4l-2.3-4.3h1.7l1.5,2.8l1.5-2.8h1.6l-2.2,4.2l2.4,4.4h-1.8l-1.6-3l-1.5,3H106.7z"/>
		<path class="st0" d="M116,9.8V2.5h-2.4V1.1h6.4v1.4h-2.4v7.3H116z"/>
		<path class="st0" d="M125.6,9.8l-0.6-2.2h-2.2l-0.6,2.2h-1.6l2.9-8.7h0.9l2.9,8.7H125.6z M123,6.5h1.6l-0.8-2.9L123,6.5z"/>
		<path class="st0" d="M128,1.1h2.9c0.7,0,1.2,0.1,1.6,0.3s0.8,0.5,1,0.9c0.2,0.4,0.3,0.8,0.3,1.3s-0.1,0.9-0.3,1.3S133,5.7,132.6,6
			c-0.4,0.2-1,0.3-1.6,0.3h-1.4v3.5H128V1.1z M130.9,5c0.5,0,0.8-0.1,1-0.3c0.2-0.2,0.3-0.5,0.3-0.9c0-0.4-0.1-0.7-0.3-0.9
			c-0.2-0.2-0.6-0.3-1-0.3h-1.3V5H130.9z"/>
		<path class="st0" d="M135.1,9.8V1.1h5.7v1.3h-4.1v2.1h3.4V6h-3.4v2.5h4.1v1.3H135.1z"/>
		<path class="st0" d="M146.3,5.2c0,0,0.2,0.1,0.5,0.4c0.3,0.3,0.6,0.5,0.7,0.8c0.1,0.3,0.2,0.6,0.2,1c0,0.5-0.1,0.9-0.3,1.3
			c-0.2,0.4-0.5,0.7-1,1c-0.5,0.2-1,0.4-1.8,0.4c-1.1,0-2.1-0.4-2.9-1.2l0.7-1.2l0,0l0,0c0.7,0.7,1.5,1.1,2.4,1.1
			c0.4,0,0.8-0.1,1-0.3s0.4-0.5,0.4-0.9c0-0.2-0.1-0.4-0.2-0.6c-0.1-0.2-0.3-0.3-0.5-0.5c-0.2-0.2-0.6-0.3-1-0.5
			c-0.8-0.3-1.4-0.7-1.8-1.2c-0.4-0.4-0.5-0.9-0.5-1.5c0-0.4,0.1-0.8,0.4-1.2c0.2-0.4,0.6-0.6,1-0.8s0.9-0.3,1.4-0.3
			c0.6,0,1.1,0.1,1.5,0.3s0.8,0.5,1.2,0.9l-0.8,1.1l0,0c0,0,0,0,0,0c-0.2-0.3-0.5-0.6-0.8-0.7c-0.3-0.2-0.7-0.2-1.1-0.2
			c-0.3,0-0.5,0-0.7,0.1c-0.2,0.1-0.3,0.2-0.4,0.4c-0.1,0.1-0.1,0.3-0.1,0.5c0,0.2,0.1,0.4,0.2,0.5c0.1,0.2,0.3,0.3,0.5,0.5
			s0.6,0.4,1.1,0.6C146,5.1,146.3,5.2,146.3,5.2z M142.3,7.6C142.3,7.6,142.3,7.6,142.3,7.6C142.3,7.6,142.3,7.6,142.3,7.6
			L142.3,7.6L142.3,7.6C142.3,7.6,142.3,7.6,142.3,7.6z M142.5,7.7C142.5,7.7,142.5,7.7,142.5,7.7C142.5,7.7,142.5,7.7,142.5,7.7
			c-0.1,0-0.1,0-0.2-0.1l0,0L142.5,7.7L142.5,7.7z M146.5,3.2C146.5,3.1,146.5,3.1,146.5,3.2C146.5,3.1,146.5,3.2,146.5,3.2
			c0.1,0,0.1,0.1,0.1,0.1l0,0L146.5,3.2L146.5,3.2z M146.7,3.3C146.7,3.3,146.7,3.3,146.7,3.3C146.7,3.3,146.7,3.3,146.7,3.3
			L146.7,3.3C146.7,3.2,146.7,3.3,146.7,3.3z"/>
	</g>
</g>
</svg>
