<?xml version="1.0" encoding="utf-8"?>
<!-- Generator: Adobe Illustrator 21.0.2, SVG Export Plug-In . SVG Version: 6.00 Build 0)  -->
<svg version="1.1" id="Capa_1" xmlns="http://www.w3.org/2000/svg" xmlns:xlink="http://www.w3.org/1999/xlink" x="0px" y="0px"
	 width="90px" height="28px" viewBox="0 0 90 28" style="enable-background:new 0 0 90 28;" xml:space="preserve">
<g id="XMLID_205_">
	<path id="XMLID_219_" d="M90,27.4L83,0.5C83,0,82.3,0,82.3,0h-4.8c0,0-0.7,0-0.8,0.5l-7,26.9c-0.1,0.5,0.4,0.5,0.4,0.5h6.1
		c0,0,0.5,0,0.6-0.5l0.8-3.4h4.7l0.8,3.4c0.1,0.5,0.6,0.5,0.6,0.5h6.1C89.6,27.9,90.1,27.9,90,27.4z M78.4,19.6l1.4-10.2l0,0
		l1.6,10.2H78.4z"/>
	<path id="XMLID_218_" d="M18,0h-5.6c-0.4,0-0.7,0.2-0.7,0.6v21.7c0,0.7-0.7,1.3-1.5,1.3l0,0H8.5l0,0C7.6,23.6,7,23,7,22.3v-2.6
		c0-0.4-0.4-0.6-0.8-0.6H0.8c-0.5,0-0.8,0.2-0.8,0.6v3l0,0c0,3,2.8,5.3,6.1,5.3h6.4c3.3,0,6.1-2.3,6.1-5.2V0.6C18.7,0.3,18.4,0,18,0
		z"/>
	<path id="XMLID_215_" d="M40.3,0h-6.6c-3.3,0-6.1,2.3-6.1,5.1v17.6c0,2.9,2.8,5.2,6.1,5.2h6.6c3.4,0,6.1-2.3,6.1-5.2V5.1
		C46.5,2.3,43.7,0,40.3,0z M39.4,22.4c0,0.7-0.6,1.3-1.5,1.3h-1.7c-0.9,0-1.6-0.6-1.6-1.3V5.7c0-0.7,0.7-1.3,1.6-1.3h1.7
		c0.9,0,1.5,0.5,1.5,1.3V22.4z"/>
	<path id="XMLID_214_" d="M61.9,0h-5.6c-0.5,0-0.8,0.2-0.8,0.6v26.7c0,0.4,0.3,0.6,0.8,0.6h5.6c0.4,0,0.7-0.2,0.7-0.6V0.7
		C62.6,0.3,62.3,0,61.9,0z"/>
</g>
</svg>
