<?xml version="1.0" encoding="utf-8"?>
<!-- Generator: Adobe Illustrator 21.0.2, SVG Export Plug-In . SVG Version: 6.00 Build 0)  -->
<svg version="1.1" id="Capa_1" xmlns="http://www.w3.org/2000/svg" xmlns:xlink="http://www.w3.org/1999/xlink" x="0px" y="0px"
	 width="142.6px" height="23.8px" viewBox="0 0 142.6 23.8" style="enable-background:new 0 0 142.6 23.8;" xml:space="preserve">
<g id="XMLID_27_">
	<g id="XMLID_89_">
		<g id="XMLID_90_">
			<path id="XMLID_91_" d="M12.7,6.5v7.3c0,2.3-1.2,3.8-3.6,3.8C7.9,17.6,7,17,6.3,16l1.6-1.7c0.3,0.4,0.8,0.9,1.1,0.9
				c0.8,0,0.8-1,0.8-1.6V6.5H12.7L12.7,6.5z"/>
		</g>
	</g>
	<g id="XMLID_84_">
		<g id="XMLID_85_">
			<path id="XMLID_86_" d="M28.9,11.7c0,3.5-2.5,5.9-6,5.9s-6-2.5-6-5.9c0-3.3,2.9-5.5,6-5.5C26.1,6.1,28.9,8.4,28.9,11.7z M20,11.7
				c0,1.9,1.4,3.2,3,3.2c1.7,0,3-1.4,3-3.2c0-1.5-1.4-2.8-3-2.8C21.3,8.8,20,10.2,20,11.7z"/>
		</g>
	</g>
	<g id="XMLID_80_">
		<g id="XMLID_81_">
			<path id="XMLID_82_" d="M36.2,17.2h-2.8V6.5h2.8V17.2z"/>
		</g>
	</g>
	<g id="XMLID_75_">
		<g id="XMLID_76_">
			<path id="XMLID_77_" d="M43.9,15.4l-0.7,1.9h-3l4.1-10.8h3.1l4.1,10.8h-3l-0.7-1.9H43.9z M45.8,9.8L45.8,9.8l-1.2,3.4h2.3
				L45.8,9.8z"/>
		</g>
	</g>
	<g id="XMLID_71_">
		<g id="XMLID_72_">
			<path id="XMLID_73_" d="M57.5,8.9l0.4,1.8h3.2l0.5,2.4h-3.1l0.4,1.9h3.3l0.5,2.4h-6.1L54.1,6.6h6.1L60.7,9L57.5,8.9
				C57.5,9,57.5,8.9,57.5,8.9z"/>
		</g>
	</g>
	<g id="XMLID_67_">
		<g id="XMLID_68_">
			<path id="XMLID_69_" d="M72.3,9.3c-0.5-0.4-1.2-0.7-1.9-0.7c-0.5,0-1.2,0.3-1.2,0.9s0.8,0.9,1.2,1l0.7,0.2
				c1.5,0.4,2.7,1.2,2.7,2.9c0,1.1-0.3,2.2-1.1,2.9c-0.8,0.7-2,1-3.1,1c-1.4,0-2.7-0.5-3.8-1.2L67,14c0.7,0.6,1.5,1.1,2.5,1.1
				c0.7,0,1.4-0.3,1.4-1.1c0-0.8-1.1-1.1-1.7-1.2c-1.8-0.5-2.9-1-2.9-3c0-2.2,1.6-3.6,3.7-3.6c1.1,0,2.4,0.3,3.4,0.9L72.3,9.3z"/>
		</g>
	</g>
	<g id="XMLID_63_">
		<g id="XMLID_64_">
			<path id="XMLID_65_" d="M82.6,17.2h-2.8V8.8h-2.3V6.4h7.4v2.4h-2.3L82.6,17.2L82.6,17.2z"/>
		</g>
	</g>
	<g id="XMLID_59_">
		<g id="XMLID_60_">
			<path id="XMLID_61_" d="M98.4,6.5v6.1c0,1.4-0.1,2.8-1.1,3.8c-0.9,0.9-2.3,1.2-3.6,1.2s-2.7-0.3-3.6-1.2C89,15.4,89,14,89,12.6
				V6.5h2.8v5.7c0,1.4,0.1,2.9,1.9,2.9s1.9-1.5,1.9-2.9V6.5H98.4z"/>
		</g>
	</g>
	<g id="XMLID_54_">
		<g id="XMLID_55_">
			<path id="XMLID_56_" d="M103.3,6.5h4c3,0,5.5,2.4,5.5,5.4s-2.5,5.4-5.5,5.4h-4V6.5z M106.1,14.9h0.6c1.7,0,3.1-0.9,3.1-3
				c0-1.9-1.3-3-3.1-3H106L106.1,14.9L106.1,14.9z"/>
		</g>
	</g>
	<g id="XMLID_38_">
		<g id="XMLID_39_">
			<path id="XMLID_40_" d="M120,17.2h-2.8V6.5h2.8V17.2z"/>
		</g>
	</g>
	<g id="XMLID_33_">
		<g id="XMLID_34_">
			<path id="XMLID_35_" d="M136.3,11.7c0,3.5-2.5,5.9-6,5.9s-6-2.5-6-5.9c0-3.3,2.9-5.5,6-5.5S136.3,8.4,136.3,11.7z M127.3,11.7
				c0,1.9,1.4,3.2,3,3.2s3-1.4,3-3.2c0-1.5-1.4-2.8-3-2.8S127.3,10.2,127.3,11.7z"/>
		</g>
	</g>
	<g id="XMLID_28_">
		<g id="XMLID_29_">
			<path id="XMLID_30_" d="M142.6,23.8H0V0h142.6V23.8z M2.8,21h137.1V2.7H2.8V21z"/>
		</g>
	</g>
</g>
</svg>
